<?xml version="1.0" standalone="no"?>
<!DOCTYPE svg PUBLIC "-//W3C//DTD SVG 20010904//EN"
 "http://www.w3.org/TR/2001/REC-SVG-20010904/DTD/svg10.dtd">
<svg version="1.0" xmlns="http://www.w3.org/2000/svg"
 width="260.000000pt" height="260.000000pt" viewBox="0 0 260.000000 260.000000"
 preserveAspectRatio="xMidYMid meet">
<metadata>
Created by potrace 1.14, written by Peter Selinger 2001-2017
</metadata>
<g transform="translate(0.000000,260.000000) scale(0.100000,-0.100000)"
fill="#000000" stroke="none">
<path d="M0 2245 l0 -354 278 -139 c152 -77 302 -153 332 -169 147 -80 328
-173 335 -173 15 0 -28 40 -79 72 -28 18 -52 36 -54 40 -2 5 -8 8 -14 8 -6 0
-17 8 -25 18 -8 9 -12 11 -8 5 9 -19 -5 -16 -45 9 -19 11 -70 39 -113 60 -43
21 -80 45 -83 53 -3 8 -40 33 -82 56 -43 23 -88 50 -102 60 -14 9 -88 56 -165
105 -77 48 -147 94 -155 101 -18 18 49 -21 210 -121 67 -42 124 -76 126 -76 1
0 19 -11 39 -24 19 -13 54 -27 78 -31 59 -10 102 -34 88 -48 -14 -14 -14 -27
0 -27 6 0 24 -9 40 -21 16 -11 35 -19 41 -17 6 2 -5 14 -25 27 -35 21 -48 41
-28 41 4 0 25 -11 45 -25 22 -15 36 -20 36 -12 0 7 -33 34 -74 60 -40 26 -81
56 -91 67 -9 10 -30 22 -45 25 -16 3 -30 12 -33 18 -3 7 -43 39 -90 72 -47 33
-84 61 -82 63 2 2 17 -5 34 -17 16 -12 36 -18 45 -15 12 5 15 2 9 -12 -5 -13
-3 -16 9 -12 17 7 26 2 167 -99 55 -40 113 -79 128 -87 16 -8 37 -24 48 -36
27 -30 126 -93 133 -85 4 3 2 9 -4 13 -87 60 -111 78 -124 92 -8 9 -53 45
-100 80 -120 90 -564 445 -579 464 -31 37 11 8 163 -112 176 -140 532 -414
556 -427 27 -15 -22 36 -96 99 -112 97 -364 319 -364 321 0 1 10 1 23 0 12 -2
21 -8 19 -14 -1 -7 2 -10 7 -7 5 4 13 2 16 -4 4 -6 30 -29 58 -52 52 -40 318
-275 448 -395 38 -35 72 -63 76 -63 4 1 -53 58 -127 127 -166 156 -507 502
-635 643 -40 45 -35 41 30 -20 44 -41 154 -149 245 -240 214 -214 280 -276
280 -266 0 4 -30 39 -67 77 -36 38 -61 69 -55 69 6 0 48 -40 94 -90 45 -49 88
-90 94 -90 13 0 86 -77 103 -109 8 -15 18 -20 31 -16 13 4 33 -11 75 -57 32
-35 54 -56 49 -48 -15 29 -161 218 -341 443 -101 125 -183 232 -183 238 0 42
131 -118 568 -699 19 -24 36 -41 39 -38 5 5 -13 32 -134 195 -35 46 -63 88
-63 94 0 5 -9 21 -20 35 -70 90 -330 465 -379 545 l-13 22 18 -21 c27 -32 98
-131 199 -279 48 -71 127 -182 175 -246 49 -64 100 -137 114 -162 36 -61 68
-88 39 -32 -12 22 -26 55 -32 74 -12 37 -78 150 -180 308 -66 102 -119 191
-134 227 -16 38 19 -3 48 -56 15 -29 38 -66 50 -83 12 -16 31 -48 43 -70 31
-61 141 -205 156 -205 15 0 44 -43 82 -120 12 -25 23 -42 23 -38 1 9 -81 201
-125 293 -18 39 -44 102 -58 140 -13 39 -38 103 -55 144 -17 40 -31 76 -31 80
0 15 54 -90 106 -209 31 -71 63 -135 70 -141 8 -6 14 -22 14 -35 0 -26 15 -40
25 -24 5 7 12 5 21 -7 10 -14 13 -15 13 -3 1 18 -14 78 -24 103 -5 12 -2 17 9
17 9 0 18 -11 21 -27 12 -60 59 -193 85 -244 5 -9 12 -33 15 -53 12 -64 32
-51 27 17 -1 10 2 16 6 13 12 -7 -4 115 -34 254 -14 69 -30 145 -34 170 -5 25
-11 57 -15 73 -4 16 -3 27 3 27 6 0 13 -23 17 -52 4 -29 11 -59 15 -68 28 -54
50 -114 50 -137 0 -52 29 -206 41 -217 8 -8 10 9 7 70 -4 69 -2 81 11 80 13
-1 15 7 13 39 -2 22 0 36 5 32 4 -5 8 -54 9 -110 1 -126 12 -209 28 -204 6 2
13 26 16 53 l6 49 7 -65 c4 -36 9 -94 11 -130 6 -78 4 -70 15 -70 5 0 12 19
16 43 4 23 11 47 15 52 8 10 42 183 54 275 3 25 18 97 34 160 21 89 28 107 30
81 2 -19 -3 -60 -11 -90 -27 -98 -30 -148 -12 -155 24 -9 25 -8 25 17 0 13 4
27 9 33 6 5 14 27 20 49 10 41 66 215 81 250 6 16 8 13 8 -15 0 -43 -17 -110
-80 -315 -60 -192 -63 -205 -50 -205 11 0 12 2 59 135 43 124 159 420 178 454
27 49 15 4 -30 -115 -25 -65 -45 -126 -45 -137 0 -24 19 -12 31 20 5 14 12 23
16 19 3 -3 2 -16 -4 -29 -31 -64 -139 -322 -163 -388 -16 -42 -37 -94 -48
-116 -22 -43 -39 -113 -27 -113 4 0 18 11 31 25 35 38 49 31 25 -11 -29 -48
-22 -53 9 -6 29 44 129 181 281 387 61 83 113 156 116 163 7 16 33 16 33 -1 0
-7 -43 -68 -96 -136 -53 -67 -94 -124 -92 -126 5 -5 115 101 166 159 23 27 42
45 42 40 0 -9 -84 -109 -232 -277 -59 -67 -79 -97 -64 -97 2 0 89 96 193 213
181 201 247 271 228 237 -28 -47 -264 -310 -422 -470 -51 -52 -63 -70 -58 -87
3 -13 1 -23 -5 -23 -5 0 -10 -5 -10 -11 0 -8 5 -8 15 1 8 7 15 19 15 26 0 13
171 194 184 194 15 0 1 -18 -81 -101 -47 -49 -84 -92 -80 -95 4 -4 34 16 69
44 34 28 64 49 66 47 10 -10 -10 -36 -49 -65 -23 -16 -36 -30 -30 -30 13 0 97
44 145 75 29 19 52 11 24 -8 -9 -7 -61 -39 -115 -71 -53 -33 -92 -61 -85 -64
7 -2 65 28 130 66 228 135 612 345 619 338 7 -7 -230 -146 -529 -310 -70 -38
-99 -64 -54 -46 14 5 72 33 128 61 103 52 290 146 403 201 33 17 56 26 50 20
-12 -12 -164 -92 -435 -229 -113 -57 -212 -108 -220 -113 -8 -6 -36 -19 -62
-30 -27 -10 -48 -24 -48 -30 0 -5 2 -10 5 -10 5 0 77 33 200 91 75 35 440 194
602 261 l73 30 0 444 0 444 -1300 0 -1300 0 0 -355z m454 30 c94 -110 191
-225 215 -255 l43 -55 -42 45 c-68 72 -380 437 -449 526 -45 58 82 -84 233
-261z m240 249 c3 -8 2 -12 -4 -9 -6 3 -10 10 -10 16 0 14 7 11 14 -7z m-209
-50 c9 -15 12 -23 6 -20 -11 7 -35 46 -28 46 3 0 12 -12 22 -26z m300 -124
c80 -145 225 -434 225 -446 -1 -19 -54 77 -170 308 -106 209 -131 263 -116
247 2 -2 30 -51 61 -109z m-601 -87 c49 -46 86 -83 82 -83 -10 0 -250 220
-255 234 -5 12 41 -27 173 -151z m506 82 c0 -5 -5 -3 -10 5 -5 8 -10 20 -10
25 0 6 5 3 10 -5 5 -8 10 -19 10 -25z m691 -405 c-7 -63 -9 -42 -10 130 0 113
3 216 7 230 10 37 14 -272 3 -360z m-691 310 c6 -11 8 -20 6 -20 -3 0 -10 9
-16 20 -6 11 -8 20 -6 20 3 0 10 -9 16 -20z m355 -63 c27 -91 30 -107 15 -107
-5 0 -12 17 -16 38 -3 20 -12 59 -20 86 -15 53 -17 66 -9 66 2 0 16 -37 30
-83z m522 51 c-3 -8 -6 -5 -6 6 -1 11 2 17 5 13 3 -3 4 -12 1 -19z m-583 -28
c7 -24 6 -24 -8 -6 -9 11 -16 27 -16 35 0 21 16 2 24 -29z m875 -102 c-85
-169 -120 -231 -126 -224 -3 2 37 82 87 178 109 204 100 188 106 188 2 0 -28
-64 -67 -142z m-1093 28 c13 -22 14 -28 3 -19 -8 6 -25 31 -38 55 -19 36 -19
39 -3 19 11 -14 28 -38 38 -55z m331 22 c-3 -8 -6 -5 -6 6 -1 11 2 17 5 13 3
-3 4 -12 1 -19z m726 -23 c-3 -9 -8 -14 -10 -11 -3 3 -2 9 2 15 9 16 15 13 8
-4z m29 -147 c-123 -206 -156 -258 -165 -258 -5 0 0 15 11 33 11 17 54 93 97
167 109 187 128 217 132 203 3 -7 -31 -72 -75 -145z m-827 106 c20 -48 19 -54
-5 -25 -18 21 -28 61 -15 61 3 0 12 -16 20 -36z m938 -16 c-36 -57 -63 -92
-63 -84 0 9 79 126 86 126 2 0 -8 -19 -23 -42z m247 29 c0 -2 -10 -12 -22 -23
l-23 -19 19 23 c18 21 26 27 26 19z m-1362 -96 c13 -23 22 -41 19 -41 -6 0
-67 87 -67 95 0 15 26 -15 48 -54z m933 36 c-10 -9 -11 -8 -5 6 3 10 9 15 12
12 3 -3 0 -11 -7 -18z m-711 -33 c0 -22 -2 -25 -15 -14 -8 7 -15 19 -15 26 0
8 7 14 15 14 10 0 15 -10 15 -26z m1040 -125 c-63 -61 -137 -129 -165 -152
l-50 -41 40 43 c60 64 273 261 282 261 4 -1 -44 -51 -107 -111z m154 80 c-29
-32 -214 -193 -232 -202 -18 -9 71 73 178 166 69 60 85 70 54 36z m-394 -29
c-6 -11 -13 -20 -16 -20 -2 0 0 9 6 20 6 11 13 20 16 20 2 0 0 -9 -6 -20z
m-170 -60 c0 -5 -5 -10 -11 -10 -5 0 -7 5 -4 10 3 6 8 10 11 10 2 0 4 -4 4
-10z m640 6 c0 -3 -15 -14 -32 -26 l-33 -22 28 26 c27 25 37 31 37 22z m80
-10 c-16 -15 -394 -267 -420 -280 -37 -18 54 51 150 114 134 89 274 178 280
179 2 1 -2 -5 -10 -13z m-2090 -12 c0 -8 -5 -12 -10 -9 -6 4 -8 11 -5 16 9 14
15 11 15 -7z m1388 -19 c-6 -14 -13 -23 -15 -21 -5 5 15 46 22 46 3 0 -1 -11
-7 -25z m-1343 -7 c14 -6 25 -15 25 -20 0 -4 5 -8 10 -8 6 0 21 -10 33 -21
l22 -22 -40 22 c-75 41 -112 77 -50 49z m1821 -63 c-22 -19 -46 -35 -55 -35
-9 0 6 16 33 35 63 44 72 44 22 0z m-764 -7 c-7 -7 -12 -8 -12 -2 0 6 3 14 7
17 3 4 9 5 12 2 2 -3 -1 -11 -7 -17z m226 -34 c-6 -16 -19 -40 -28 -54 -9 -14
-24 -46 -34 -71 -14 -40 -56 -95 -56 -75 0 3 16 39 36 79 56 112 117 202 82
121z m425 -37 c-64 -56 -211 -154 -177 -118 18 19 198 151 207 151 4 0 -10
-15 -30 -33z"/>
<path d="M1697 2054 c-4 -4 -7 -14 -7 -23 0 -11 3 -12 11 -4 6 6 10 16 7 23
-2 6 -7 8 -11 4z"/>
<path d="M1075 1910 c-3 -6 1 -13 9 -16 9 -3 14 -10 11 -14 -3 -5 -1 -11 5
-15 11 -7 12 0 4 33 -7 23 -19 29 -29 12z"/>
<path d="M0 934 l0 -934 718 0 717 0 -1 220 c-1 209 6 275 19 193 4 -21 4
-122 0 -225 l-6 -188 116 0 117 0 -10 26 c-13 32 -13 86 -1 64 5 -8 11 -32 15
-52 l7 -38 120 0 119 0 -23 48 c-13 26 -45 92 -71 147 -26 55 -54 112 -62 127
-8 15 -21 46 -30 70 -17 48 -64 132 -70 125 -2 -2 7 -30 21 -62 15 -32 27 -77
28 -101 1 -23 5 -40 10 -37 4 2 7 -24 6 -59 l0 -63 -20 50 c-23 56 -26 61 -35
52 -3 -3 -1 -20 5 -39 25 -80 40 -147 45 -198 3 -30 3 -48 0 -40 -3 8 -9 24
-14 35 -5 11 -21 63 -35 115 -15 52 -35 104 -46 116 -10 11 -19 31 -19 43 0
39 -42 169 -61 190 -11 11 -16 27 -12 40 3 12 1 21 -6 21 -6 0 -11 9 -11 19 0
11 -4 23 -10 26 -13 8 -12 2 1 -70 6 -33 18 -65 27 -72 11 -8 12 -12 5 -13 -8
0 -13 -14 -13 -34 0 -19 -5 -36 -10 -38 -12 -4 -3 -98 26 -265 9 -57 14 -106
10 -110 -13 -13 -23 18 -36 111 -7 50 -16 98 -20 106 -4 8 -15 69 -24 135 -27
199 -27 199 -37 184 -5 -8 -6 -31 -2 -51 4 -25 2 -38 -6 -38 -6 0 -11 6 -11
14 0 8 -6 16 -12 18 -9 3 -14 40 -16 117 -4 102 -6 110 -18 86 -9 -18 -14 -76
-15 -198 -1 -94 -5 -182 -10 -194 -4 -12 -11 -85 -15 -162 -4 -78 -11 -141
-16 -141 -8 0 -3 192 8 335 10 124 14 535 6 535 -5 0 -14 -53 -21 -117 -15
-149 -31 -236 -45 -245 -8 -6 -7 -10 2 -16 8 -6 10 -22 6 -55 -7 -45 -23 -65
-25 -29 0 9 -5 1 -11 -18 -20 -67 -19 -12 2 101 24 130 43 289 36 297 -6 6
-61 -109 -85 -181 -10 -29 -39 -108 -65 -176 -25 -69 -46 -130 -46 -138 0 -7
-5 -13 -11 -13 -6 0 -9 -6 -7 -12 3 -7 0 -26 -7 -41 -10 -25 -13 -26 -24 -13
-7 9 -9 21 -5 28 5 7 9 18 9 23 1 6 5 19 9 30 4 11 16 43 26 70 9 28 34 93 53
145 20 52 39 107 43 123 3 15 10 30 15 33 5 3 9 13 9 22 0 25 -15 3 -35 -53
-9 -27 -28 -68 -41 -91 -12 -22 -37 -76 -54 -118 -34 -87 -75 -167 -64 -126 4
14 11 39 15 55 9 35 49 135 86 215 39 83 74 182 68 188 -7 7 -8 6 -49 -76 -20
-40 -54 -101 -75 -136 -21 -34 -66 -114 -99 -177 -123 -234 -150 -267 -53 -66
32 67 83 165 113 217 54 94 71 130 63 130 -4 0 -184 -301 -219 -365 -18 -35
-66 -94 -66 -82 0 14 37 82 145 262 121 204 128 215 120 215 -3 0 -75 -106
-161 -235 -85 -129 -157 -235 -160 -235 -10 0 57 112 174 293 112 172 140 232
70 145 -18 -24 -56 -74 -83 -113 -76 -110 -154 -213 -167 -221 -10 -7 38 66
117 173 16 23 48 67 70 99 22 31 88 120 148 197 59 77 105 143 101 146 -3 3
-15 -6 -27 -20 -63 -75 -307 -368 -337 -405 -19 -24 -39 -43 -43 -44 -11 0 35
60 116 154 37 43 65 81 62 85 -4 3 -58 -47 -121 -113 -63 -65 -117 -116 -120
-114 -5 6 55 78 130 156 53 55 50 70 -6 25 -18 -15 -92 -83 -163 -152 -246
-237 -370 -356 -415 -396 -60 -52 63 69 284 282 99 95 176 176 173 180 -4 3
-15 -1 -24 -9 -10 -8 -93 -81 -186 -162 -92 -81 -167 -144 -166 -139 1 8 278
253 364 322 28 21 66 53 85 71 19 17 45 39 58 47 26 18 54 61 30 48 -23 -14
-133 -101 -459 -364 -16 -13 -29 -21 -29 -18 0 5 172 151 305 259 39 31 90 78
115 104 49 51 44 48 -73 -39 -43 -33 -80 -57 -82 -55 -4 3 110 97 238 196 139
107 127 104 -73 -20 -221 -138 -406 -251 -440 -270 l-35 -20 25 21 c14 11 66
46 115 78 189 119 466 305 462 310 -6 5 -60 -24 -240 -129 -120 -69 -187 -102
-194 -94 -2 2 22 16 53 30 32 15 81 42 109 60 27 18 70 44 95 58 78 44 255
151 260 158 3 4 12 10 20 13 13 5 13 5 0 6 -8 0 -41 -13 -74 -29 -32 -16 -62
-27 -67 -24 -5 3 -9 1 -9 -4 0 -5 -11 -9 -25 -9 -13 0 -39 -7 -57 -16 -18 -8
-67 -29 -108 -46 -41 -16 -108 -44 -149 -61 -41 -17 -78 -29 -83 -28 -4 2 50
27 120 57 169 71 261 115 262 122 0 8 -68 -13 -205 -63 -153 -57 -278 -98
-282 -95 -1 2 34 18 80 36 45 19 116 47 157 64 41 16 118 44 170 62 52 18 108
38 124 44 l29 12 -22 20 c-16 16 -29 19 -49 14 -15 -3 -40 -8 -57 -11 -29 -5
-29 -4 -11 10 11 9 28 16 39 16 10 0 15 4 12 10 -3 5 0 7 9 4 8 -3 27 1 43 9
15 8 72 20 126 28 86 11 97 15 81 26 -10 7 -37 13 -60 13 -24 0 -46 5 -49 10
-4 6 15 10 49 10 31 0 56 4 56 8 0 9 -66 22 -205 42 -108 15 -238 40 -243 45
-10 10 53 5 172 -14 183 -29 206 -32 206 -23 0 7 -87 32 -167 47 -18 4 -33 12
-33 20 0 7 -15 16 -33 19 -19 4 -52 15 -75 26 -23 11 -92 36 -154 56 -170 55
-337 112 -356 123 -28 17 -1 12 78 -13 41 -14 116 -36 165 -51 85 -25 162 -52
230 -81 17 -7 50 -20 75 -28 25 -8 63 -22 85 -30 51 -19 65 -20 65 -1 0 9 9
15 23 16 26 0 -166 98 -293 149 -47 19 -157 68 -245 110 -88 42 -206 98 -262
125 -57 26 -103 52 -103 57 0 5 8 5 18 0 9 -5 53 -26 97 -47 272 -127 436
-205 448 -212 4 -2 7 0 7 5 0 6 -130 75 -290 155 l-290 146 0 -935z m135 743
c234 -81 745 -285 745 -298 0 -12 6 -13 -85 22 -44 17 -93 35 -110 40 -16 5
-48 18 -70 29 -22 11 -157 65 -300 121 -143 56 -264 106 -270 112 -7 7 -4 8
10 2 11 -4 47 -16 80 -28z m15 -87 c0 -5 -2 -10 -4 -10 -3 0 -8 5 -11 10 -3 6
-1 10 4 10 6 0 11 -4 11 -10z m265 -154 c28 -8 43 -15 35 -15 -8 0 -37 6 -65
13 -27 8 -43 15 -35 15 8 0 38 -6 65 -13z m165 -39 c30 -9 66 -20 80 -26 56
-22 -20 -11 -97 15 -120 40 -111 46 17 11z m10 -67 c13 -9 13 -10 0 -9 -8 1
-26 5 -40 9 l-25 8 25 1 c14 0 32 -4 40 -9z m122 -137 c-40 -2 -103 -2 -140 0
-37 2 -4 3 73 3 77 0 107 -2 67 -3z m-27 -123 c-27 -12 -43 -12 -25 0 8 5 22
9 30 9 10 0 8 -3 -5 -9z m-85 -20 c-20 -13 -33 -13 -25 0 3 6 14 10 23 10 15
0 15 -2 2 -10z m145 -10 c-11 -5 -29 -8 -40 -8 -16 0 -15 2 5 8 34 11 60 11
35 0z m-330 -240 c-3 -5 -12 -10 -18 -10 -7 0 -6 4 3 10 19 12 23 12 15 0z
m801 -346 c-19 -88 -37 -185 -41 -216 -3 -32 -10 -60 -15 -63 -19 -12 -18 33
6 143 13 64 29 142 34 173 11 60 38 135 46 126 3 -3 -10 -76 -30 -163z m201
-6 c-3 -8 -6 -5 -6 6 -1 11 2 17 5 13 3 -3 4 -12 1 -19z m143 -75 c0 -10 3
-29 5 -43 3 -16 0 -12 -9 10 -18 43 -19 50 -6 50 6 0 10 -8 10 -17z m-1200 -7
c0 -2 -24 -23 -52 -46 l-53 -42 50 46 c49 45 55 50 55 42z m907 -68 c-3 -7 -5
-2 -5 12 0 14 2 19 5 13 2 -7 2 -19 0 -25z m-42 -60 c-10 -85 -28 -113 -21
-32 5 60 14 94 23 94 3 0 2 -28 -2 -62z m352 30 c-3 -8 -6 -5 -6 6 -1 11 2 17
5 13 3 -3 4 -12 1 -19z m66 -42 c19 -72 22 -105 8 -90 -9 9 -41 121 -41 143 0
6 4 11 8 11 4 0 16 -29 25 -64z m-1393 51 c0 -2 -12 -14 -27 -28 l-28 -24 24
28 c23 25 31 32 31 24z m1005 -104 c-5 -59 -10 -82 -17 -75 -7 7 -7 25 1 56 6
25 11 64 12 88 0 24 3 37 6 30 3 -8 2 -52 -2 -99z m531 39 c-9 -8 -26 10 -26
26 1 15 2 15 15 -2 8 -11 13 -21 11 -24z m-745 -49 c-12 -20 -14 -14 -5 12 4
9 9 14 11 11 3 -2 0 -13 -6 -23z m759 6 c0 -6 -4 -7 -10 -4 -5 3 -10 11 -10
16 0 6 5 7 10 4 6 -3 10 -11 10 -16z m-1670 7 c0 -2 -8 -10 -17 -17 -16 -13
-17 -12 -4 4 13 16 21 21 21 13z m1659 -89 c7 -21 11 -40 9 -43 -8 -7 -45 70
-52 106 l-6 35 18 -30 c9 -16 23 -47 31 -68z m-961 58 c-6 -14 -13 -23 -15
-21 -5 5 15 46 22 46 3 0 -1 -11 -7 -25z m322 -5 c0 -13 -5 -18 -14 -14 -8 3
-12 12 -9 20 8 21 23 17 23 -6z m-1060 6 c0 -2 -8 -10 -17 -17 -16 -13 -17
-12 -4 4 13 16 21 21 21 13z m1410 -48 c0 -32 -3 -39 -10 -28 -13 20 -13 70 0
70 6 0 10 -19 10 -42z m-303 -5 c-3 -10 -5 -4 -5 12 0 17 2 24 5 18 2 -7 2
-21 0 -30z m-167 23 c0 -3 -4 -8 -10 -11 -5 -3 -10 -1 -10 4 0 6 5 11 10 11 6
0 10 -2 10 -4z m480 -92 c0 -8 -4 -12 -10 -9 -5 3 -10 10 -10 16 0 5 5 9 10 9
6 0 10 -7 10 -16z"/>
<path d="M1351 1686 c-1 -26 2 -37 9 -30 6 6 6 21 1 39 -9 30 -9 30 -10 -9z"/>
<path d="M2520 1662 c-41 -21 -100 -48 -130 -61 -30 -12 -73 -31 -95 -41 -22
-10 -94 -40 -160 -66 -157 -62 -222 -92 -230 -104 -3 -6 -4 -10 -1 -10 11 0
177 58 183 64 11 11 34 7 49 -9 13 -12 12 -15 -5 -24 -10 -6 -37 -13 -60 -17
-22 -4 -41 -10 -41 -15 0 -14 -43 -49 -60 -49 -9 0 -25 -9 -35 -20 -18 -19
-17 -20 3 -20 11 0 31 4 44 9 13 5 52 11 88 14 l65 6 -45 -13 c-55 -15 -83
-27 -91 -38 -3 -5 -37 -15 -75 -22 l-69 -14 140 -3 c172 -4 246 -4 448 1 l157
3 0 157 0 157 -147 -43 c-82 -24 -152 -42 -157 -41 -5 2 62 25 148 52 121 38
156 53 156 66 0 16 -4 16 -52 -1 -29 -10 -123 -41 -208 -68 -85 -28 -163 -53
-172 -57 -10 -4 -18 -3 -18 3 0 11 113 53 307 113 l143 44 0 43 c0 23 -1 42
-2 41 -2 0 -37 -17 -78 -37z m-405 -302 c-3 -5 -13 -10 -21 -10 -8 0 -12 5 -9
10 3 6 13 10 21 10 8 0 12 -4 9 -10z m130 -30 c-3 -5 -13 -10 -21 -10 -8 0
-12 5 -9 10 3 6 13 10 21 10 8 0 12 -4 9 -10z m155 -61 l85 -2 -80 -7 c-66 -7
-185 -6 -325 0 -23 1 -24 2 -5 11 11 5 70 7 130 4 61 -3 148 -6 195 -6z"/>
<path d="M882 1554 c10 -10 20 -15 24 -12 3 4 -5 12 -18 18 -22 12 -22 12 -6
-6z"/>
<path d="M970 1360 c0 -5 5 -10 11 -10 5 0 7 5 4 10 -3 6 -8 10 -11 10 -2 0
-4 -4 -4 -10z"/>
<path d="M1788 1233 c6 -2 18 -2 25 0 6 3 1 5 -13 5 -14 0 -19 -2 -12 -5z"/>
<path d="M2590 1216 c-3 -3 -154 -6 -335 -7 -385 -3 -497 -9 -503 -26 -2 -9 9
-13 35 -13 21 -1 83 -8 138 -16 100 -15 169 -23 385 -43 63 -6 153 -16 200
-21 46 -5 86 -8 88 -6 1 2 2 34 0 71 -2 37 -5 64 -8 61z"/>
<path d="M1662 1162 c-13 -9 63 -28 208 -52 36 -6 83 -15 105 -20 22 -5 65
-12 94 -16 47 -5 52 -8 38 -19 -9 -7 -17 -15 -17 -19 0 -12 38 -6 50 9 7 8 26
15 43 15 25 0 28 -3 19 -12 -10 -10 0 -15 50 -24 94 -17 259 -52 293 -63 l30
-9 -31 -1 c-33 -1 -288 44 -303 53 -5 4 -21 1 -35 -5 -21 -10 -29 -9 -43 3
-12 10 -29 14 -49 11 -18 -3 -35 0 -38 6 -4 6 -18 11 -31 11 -12 0 -26 7 -29
16 -3 8 -11 12 -16 9 -6 -4 -17 -1 -25 5 -11 9 -18 8 -31 -5 -27 -27 -7 -38
124 -65 24 -6 72 -20 108 -32 62 -21 63 -22 44 -40 -23 -21 -30 -23 -30 -5 0
9 -23 19 -57 27 -32 7 -62 17 -68 20 -5 4 -27 10 -47 14 -20 4 -58 16 -83 27
-25 11 -51 18 -58 16 -14 -5 145 -87 168 -87 8 0 15 -4 15 -10 0 -5 8 -10 18
-10 10 0 22 -4 28 -9 5 -5 52 -26 104 -46 52 -21 99 -42 104 -46 6 -5 18 -9
28 -9 10 0 18 -4 18 -9 0 -17 -20 -23 -35 -11 -11 9 -18 10 -29 1 -11 -9 -15
-7 -19 8 -3 14 -11 18 -32 13 -24 -4 -27 -2 -22 12 5 13 3 16 -11 12 -10 -3
-35 3 -57 14 -22 11 -45 20 -52 20 -7 0 -13 3 -13 8 0 8 -91 52 -108 52 -10 0
-27 8 -110 50 -75 38 -66 16 15 -35 43 -28 89 -56 103 -63 14 -7 32 -20 41
-28 8 -8 23 -14 32 -14 17 0 22 -11 11 -23 -8 -8 -74 26 -208 107 -60 36 -113
66 -118 66 -17 0 3 -20 60 -59 97 -66 105 -89 12 -32 -66 40 -77 45 -50 21 19
-18 64 -52 100 -78 36 -25 88 -64 115 -87 28 -23 107 -83 178 -134 70 -51 130
-97 133 -102 14 -23 -22 0 -151 97 -77 58 -171 128 -210 156 l-70 50 45 -44
c25 -24 83 -74 130 -112 224 -180 531 -438 527 -443 -3 -2 -102 74 -220 171
-119 96 -224 179 -234 184 -10 6 -85 69 -168 141 -82 72 -154 131 -160 131 -5
-1 6 -15 25 -32 147 -131 327 -296 398 -365 47 -46 89 -83 94 -83 4 0 7 -6 5
-12 -1 -7 5 -12 14 -10 9 1 24 -7 34 -18 18 -20 18 -21 -1 -15 -10 4 40 -50
111 -119 72 -69 126 -126 121 -126 -11 0 -65 50 -272 250 -155 150 -448 415
-404 366 25 -28 494 -495 508 -506 4 -3 23 -23 42 -45 87 -97 -111 83 -395
359 -165 160 -322 310 -350 331 l-50 40 32 -40 c17 -22 56 -69 87 -105 31 -36
56 -69 56 -73 0 -10 95 -154 147 -222 41 -54 21 -45 -39 17 -28 30 -173 222
-220 292 -4 6 -10 7 -14 4 -6 -7 91 -156 282 -433 46 -66 109 -159 141 -207
37 -56 65 -87 77 -87 16 -1 17 1 5 18 -8 11 -56 79 -108 153 -52 73 -99 139
-104 146 -5 6 -7 12 -4 12 9 0 237 -307 237 -319 0 -7 37 -11 111 -11 l111 0
-112 118 c-373 392 -526 560 -551 605 -16 27 428 -436 611 -638 l75 -83 57 -1
57 -1 1 534 0 534 -97 6 c-54 4 -125 11 -158 16 -33 5 -123 14 -200 20 -116
10 -295 33 -440 56 -16 2 -36 1 -43 -4z m675 -128 c-3 -3 -12 -4 -19 -1 -8 3
-5 6 6 6 11 1 17 -2 13 -5z m148 -24 c7 -11 -9 -11 -45 0 -24 8 -24 8 7 9 17
1 35 -3 38 -9z m105 -20 c0 -13 -30 -13 -50 0 -11 7 -7 10 18 10 17 0 32 -4
32 -10z m-231 -76 c72 -17 108 -31 131 -53 12 -12 11 -13 -10 -6 -14 5 -38 12
-55 16 -145 36 -202 58 -156 59 14 0 54 -7 90 -16z m-84 -34 c3 -5 1 -10 -4
-10 -6 0 -11 5 -11 10 0 6 2 10 4 10 3 0 8 -4 11 -10z m-310 -70 c3 -5 2 -10
-4 -10 -5 0 -13 5 -16 10 -3 6 -2 10 4 10 5 0 13 -4 16 -10z m203 -19 c9 -5
38 -19 65 -30 26 -12 47 -28 47 -36 0 -12 -13 -8 -52 16 -29 17 -61 33 -70 36
-10 3 -18 9 -18 14 0 11 6 11 28 0z m240 -29 c3 -9 -2 -13 -14 -10 -9 1 -19 9
-22 16 -3 9 2 13 14 10 9 -1 19 -9 22 -16z m46 -11 c3 -5 -1 -11 -9 -15 -9 -3
-15 0 -15 9 0 16 16 20 24 6z m54 -20 c10 -6 7 -10 -11 -13 -18 -4 -24 -1 -20
9 6 15 13 16 31 4z m47 -21 c3 -5 -1 -10 -9 -10 -9 0 -16 5 -16 10 0 6 4 10 9
10 6 0 13 -4 16 -10z m-498 -308 c20 -23 34 -45 31 -48 -6 -5 -111 112 -152
171 -22 31 -16 26 28 -20 31 -33 73 -79 93 -103z m85 -106 c10 -19 8 -18 -16
3 -14 14 -26 29 -26 34 0 13 29 -12 42 -37z m323 -76 c21 -22 37 -40 34 -40
-3 0 -23 18 -44 40 -21 22 -37 40 -34 40 3 0 23 -18 44 -40z m-261 5 c9 -14
15 -25 13 -25 -2 0 -14 11 -27 25 -13 14 -19 25 -13 25 6 0 18 -11 27 -25z
m327 -62 c13 -16 12 -17 -3 -4 -17 13 -22 21 -14 21 2 0 10 -8 17 -17z m-270
-10 c13 -16 12 -17 -3 -4 -17 13 -22 21 -14 21 2 0 10 -8 17 -17z m-61 -18 c7
-9 8 -15 2 -15 -5 0 -12 7 -16 15 -3 8 -4 15 -2 15 2 0 9 -7 16 -15z m81 -107
c16 -29 2 -21 -22 15 -17 23 -18 28 -6 18 10 -8 23 -23 28 -33z"/>
<path d="M938 1113 c-16 -2 -28 -8 -28 -13 0 -12 29 -20 35 -10 4 6 17 10 30
10 13 0 27 5 30 10 6 10 -14 11 -67 3z"/>
<path d="M1850 1076 c0 -2 15 -6 34 -8 19 -2 32 0 30 4 -5 8 -64 12 -64 4z"/>
<path d="M2035 1050 c3 -5 11 -10 16 -10 6 0 7 5 4 10 -3 6 -11 10 -16 10 -6
0 -7 -4 -4 -10z"/>
<path d="M1805 1040 c3 -5 11 -10 16 -10 6 0 7 5 4 10 -3 6 -11 10 -16 10 -6
0 -7 -4 -4 -10z"/>
<path d="M1292 830 c0 -14 2 -19 5 -12 2 6 2 18 0 25 -3 6 -5 1 -5 -13z"/>
<path d="M1211 767 c-16 -41 -13 -57 5 -24 8 16 13 34 11 40 -3 7 -10 -1 -16
-16z"/>
<path d="M1600 761 c0 -5 5 -13 10 -16 6 -3 10 -2 10 4 0 5 -4 13 -10 16 -5 3
-10 2 -10 -4z"/>
<path d="M899 733 c-13 -16 -12 -17 4 -4 9 7 17 15 17 17 0 8 -8 3 -21 -13z"/>
<path d="M1650 734 c0 -3 15 -29 33 -57 106 -164 337 -550 337 -562 0 -4 15
-31 33 -61 29 -49 35 -53 70 -54 20 0 37 2 37 5 0 2 -67 102 -148 222 -82 120
-193 284 -247 366 -85 128 -115 164 -115 141z"/>
<path d="M1630 693 c0 -6 7 -24 15 -40 8 -15 17 -40 19 -54 3 -14 17 -42 31
-63 14 -20 25 -42 25 -48 0 -6 50 -114 110 -240 61 -125 110 -233 110 -238 0
-6 16 -10 35 -10 l36 0 -37 68 c-21 37 -58 103 -82 147 -82 146 -144 266 -140
271 4 4 245 -407 269 -459 7 -15 20 -27 30 -27 18 0 12 10 -208 378 -76 126
-185 297 -199 312 -8 9 -14 10 -14 3z"/>
<path d="M1501 654 c0 -11 3 -14 6 -6 3 7 2 16 -1 19 -3 4 -6 -2 -5 -13z"/>
<path d="M2325 320 c3 -5 8 -10 11 -10 2 0 4 5 4 10 0 6 -5 10 -11 10 -5 0 -7
-4 -4 -10z"/>
</g>
</svg>
